<?xml version="1.0" encoding="utf-8"?>
<!-- Generator: Adobe Illustrator 18.0.0, SVG Export Plug-In . SVG Version: 6.00 Build 0)  -->
<!DOCTYPE svg PUBLIC "-//W3C//DTD SVG 1.1//EN" "http://www.w3.org/Graphics/SVG/1.1/DTD/svg11.dtd">
<svg version="1.1" id="Calque_1" xmlns="http://www.w3.org/2000/svg" xmlns:xlink="http://www.w3.org/1999/xlink" x="0px" y="0px"
	 viewBox="0 0 600 600" enable-background="new 0 0 600 600" xml:space="preserve">
<linearGradient id="SVGID_1_" gradientUnits="userSpaceOnUse" x1="15.7109" y1="121.9128" x2="353.4476" y2="121.9128">
	<stop  offset="0" style="stop-color:#B03963"/>
	<stop  offset="0.2538" style="stop-color:#BB4456"/>
	<stop  offset="0.6422" style="stop-color:#CA533F"/>
	<stop  offset="1" style="stop-color:#D25B31"/>
</linearGradient>
<polygon fill="url(#SVGID_1_)" points="353.2,185.5 15.7,185.5 15.7,58.3 314.5,58.3 353.4,58.4 353.2,85.5 "/>
<g>
	<path fill="#87471F" d="M90.9,296.1c0.3-2,0.9-3.7,1.9-4.9c1.4-1.8,3.3-2.6,5.5-2.3c1.2,0.3,2.4,0.7,3.4,1.2
		c0.2,0.1,0.4,0.2,0.6,0.4l1.9,1.4l33.9,26.8l-7.5,9.5l10.9,40.9l-54.1-48.1L90.9,296.1z"/>
	<path fill="#87471F" d="M84.9,319.4l-3.2,23.2l16.5,2.3l-37.5,28.3l-28.3-37.5l16.5,2.3l4.1-29.5c0.5-3.6,3.7-7.7,7.1-9.1
		l28.9-11.7c1.1-0.5,2.5-0.7,3.9-0.7l0.2,0.5c-1.1,0.4-2.1,1.1-2.9,2.1c-0.9,1.2-1.6,2.8-1.8,4.9L84.9,319.4z"/>
</g>
<polygon fill="#AED136" points="354.1,97.8 372.3,118.2 353.4,136.8 "/>
<path fill="#60449B" stroke="#FFFFFF" stroke-width="3" stroke-miterlimit="10" d="M486.9,155.3l28.3-27.5c0,0,0,0,0,0
	c-43.9-45.3-102-68.6-160.5-69.5l-2,127.1c26,0.4,51.7,10.7,71.2,30.8c0,0,0,0,0,0l35-33.9l26.5,0.2L486.9,155.3z"/>
<linearGradient id="SVGID_2_" gradientUnits="userSpaceOnUse" x1="247.3909" y1="58.3452" x2="247.3909" y2="445.9059">
	<stop  offset="0" style="stop-color:#CA543E"/>
	<stop  offset="0.6172" style="stop-color:#F57F20"/>
	<stop  offset="1" style="stop-color:#FCB116"/>
</linearGradient>
<path fill="url(#SVGID_2_)" d="M143.9,190.1c-13.7,29.4-20.9,61.2-21.4,93.1c-1,63.1,23.7,120.6,64.4,162.7l91.3-88.5
	c-18.1-18.6-29-44.2-28.6-72.2l0,0c0.4-25.9,10.7-51.7,30.8-71.2c18.6-18.1,44.2-29,72.2-28.6c0,0,0,0,0,0l0.8-48.7l18.8-18.6
	l-18.2-20.3l0.6-39.5c0,0,0,0,0,0c-63.1-1-120.6,23.7-162.7,64.4C171.4,142.7,155.4,165.6,143.9,190.1"/>
<rect x="197.7" y="282.6" fill="none" width="305.5" height="34.9"/>
<text transform="matrix(1 0 0 1 258.2669 294.9288)" fill="#414142" font-family="'OpenSans'" font-size="16.283">KPЪГОВА ИКОНОМИКА</text>
<rect x="-91.4" y="380.1" fill="none" width="305.5" height="34.9"/>
<text transform="matrix(1 0 0 1 12.1963 392.4854)"><tspan x="0" y="0" fill="#87471F" font-family="'OpenSans'" font-size="16.283">Остатъчни </tspan><tspan x="3.8" y="19.5" fill="#87471F" font-family="'OpenSans'" font-size="16.283">отпадъци</tspan></text>
<text transform="matrix(1 0 0 1 37.1313 158.6992)" fill="#FFFFFF" font-family="'OpenSans'" font-size="11.6307">Суровини</text>
<g>
	<path fill="#FFFFFF" d="M145.6,124l-6.3-10h4.3h0.1l-5.2-11h3.7l-7.4-10.5l-5.4,7.8L123.3,88h5.7l-11.1-15.3L106.7,88h5l-7.9,15
		h0.3h6.3l-9.5,19H114v13h6v-13h5.7l-2,2h7.3v11h6v-11H145.6z M130.5,103l-2.8,5.9l-3-5.9H130.5z M129.7,112.9h0.2l-0.1,0.2
		L129.7,112.9z"/>
</g>
<g>
	<g>
		<path fill="#FFFFFF" d="M66.3,119.6L66.3,119.6l-10.6-18.4l-10.6,18.4h0c-0.9,1.7-1.4,3.6-1.4,5.6c0,6.6,5.4,12,12,12
			c6.6,0,12-5.4,12-12C67.7,123.2,67.2,121.3,66.3,119.6z M55.5,134.5c-4.8,0-8.8-3.9-8.8-8.8c0-0.7,0.6-1.3,1.3-1.3
			c0.7,0,1.3,0.6,1.3,1.3c0,3.4,2.8,6.2,6.2,6.2c0.7,0,1.3,0.6,1.3,1.3C56.8,133.9,56.2,134.5,55.5,134.5z"/>
		<path fill="#FFFFFF" d="M76.3,109.4L76.3,109.4l-5.1-8.8l-5.1,8.8h0c-0.4,0.8-0.7,1.7-0.7,2.7c0,3.2,2.6,5.7,5.7,5.7
			c3.2,0,5.7-2.6,5.7-5.7C76.9,111.1,76.7,110.2,76.3,109.4z M71.1,116.5c-2.3,0-4.2-1.9-4.2-4.2c0-0.3,0.3-0.6,0.6-0.6
			c0.3,0,0.6,0.3,0.6,0.6c0,1.6,1.3,3,3,3c0.3,0,0.6,0.3,0.6,0.6C71.7,116.2,71.4,116.5,71.1,116.5z"/>
	</g>
</g>
<g>
	<g>
		<path fill="#FFFFFF" d="M35.6,72.2c0,0.9,0.7,1.6,1.6,1.6c0.9,0,1.6-0.7,1.6-1.6s-1.6-2.6-1.6-2.6S35.6,71.3,35.6,72.2z"/>
		<g>
			<path fill="#FFFFFF" d="M38.1,74.5c-0.8,0.8-0.8,2,0,2.7c0.8,0.8,2,0.8,2.7,0c0.8-0.8,0.8-3.5,0.8-3.5S38.9,73.7,38.1,74.5z"/>
			<path fill="#FFFFFF" d="M38,78.7c-0.7,0.7-0.7,1.8,0,2.4c0.7,0.7,1.8,0.7,2.4,0c0.7-0.7,0.7-3.2,0.7-3.2S38.7,78,38,78.7z"/>
			<path fill="#FFFFFF" d="M38,82.9c-0.6,0.6-0.6,1.6,0,2.3c0.6,0.6,1.6,0.6,2.3,0c0.6-0.6,0.7-3,0.7-3S38.6,82.3,38,82.9z"/>
		</g>
		<g>
			<path fill="#FFFFFF" d="M36.2,74.5c0.8,0.8,0.8,2,0,2.7c-0.8,0.8-2,0.8-2.7,0c-0.8-0.8-0.8-3.5-0.8-3.5S35.5,73.7,36.2,74.5z"/>
			<path fill="#FFFFFF" d="M36.3,78.7c0.7,0.7,0.7,1.8,0,2.4c-0.7,0.7-1.8,0.7-2.4,0c-0.7-0.7-0.7-3.2-0.7-3.2S35.6,78,36.3,78.7z"
				/>
			<path fill="#FFFFFF" d="M36.3,82.9c0.6,0.6,0.6,1.6,0,2.3c-0.6,0.6-1.6,0.6-2.3,0c-0.6-0.6-0.7-3-0.7-3S35.7,82.3,36.3,82.9z"/>
		</g>
		<polygon fill="#FFFFFF" points="37.9,92 36.4,92 36.8,88 37.5,88 		"/>
	</g>
	<g>
		<path fill="#FFFFFF" d="M46.4,72.2c0,0.9,0.7,1.6,1.6,1.6c0.9,0,1.6-0.7,1.6-1.6S48,69.6,48,69.6S46.4,71.3,46.4,72.2z"/>
		<g>
			<path fill="#FFFFFF" d="M49,74.5c-0.8,0.8-0.8,2,0,2.7c0.8,0.8,2,0.8,2.7,0c0.8-0.8,0.8-3.5,0.8-3.5S49.7,73.7,49,74.5z"/>
			<path fill="#FFFFFF" d="M48.9,78.7c-0.7,0.7-0.7,1.8,0,2.4c0.7,0.7,1.8,0.7,2.4,0c0.7-0.7,0.7-3.2,0.7-3.2S49.6,78,48.9,78.7z"/>
			<path fill="#FFFFFF" d="M48.9,82.9c-0.6,0.6-0.6,1.6,0,2.3c0.6,0.6,1.6,0.6,2.3,0c0.6-0.6,0.7-3,0.7-3S49.5,82.3,48.9,82.9z"/>
		</g>
		<g>
			<path fill="#FFFFFF" d="M47.1,74.5c0.8,0.8,0.8,2,0,2.7c-0.8,0.8-2,0.8-2.7,0c-0.8-0.8-0.8-3.5-0.8-3.5S46.3,73.7,47.1,74.5z"/>
			<path fill="#FFFFFF" d="M47.1,78.7c0.7,0.7,0.7,1.8,0,2.4c-0.7,0.7-1.8,0.7-2.4,0C44,80.5,43.9,78,43.9,78S46.4,78,47.1,78.7z"/>
			<path fill="#FFFFFF" d="M47.2,82.9c0.6,0.6,0.6,1.6,0,2.3c-0.6,0.6-1.6,0.6-2.3,0c-0.6-0.6-0.7-3-0.7-3S46.5,82.3,47.2,82.9z"/>
		</g>
		<polygon fill="#FFFFFF" points="48.8,92 47.3,92 47.7,88 48.4,88 		"/>
	</g>
	<g>
		<path fill="#FFFFFF" d="M57.3,72.2c0,0.9,0.7,1.6,1.6,1.6c0.9,0,1.6-0.7,1.6-1.6s-1.6-2.6-1.6-2.6S57.3,71.3,57.3,72.2z"/>
		<g>
			<path fill="#FFFFFF" d="M59.8,74.5c-0.8,0.8-0.8,2,0,2.7c0.8,0.8,2,0.8,2.7,0c0.8-0.8,0.8-3.5,0.8-3.5S60.6,73.7,59.8,74.5z"/>
			<path fill="#FFFFFF" d="M59.8,78.7c-0.7,0.7-0.7,1.8,0,2.4c0.7,0.7,1.8,0.7,2.4,0c0.7-0.7,0.7-3.2,0.7-3.2S60.4,78,59.8,78.7z"/>
			<path fill="#FFFFFF" d="M59.7,82.9c-0.6,0.6-0.6,1.6,0,2.3c0.6,0.6,1.6,0.6,2.3,0c0.6-0.6,0.7-3,0.7-3S60.3,82.3,59.7,82.9z"/>
		</g>
		<g>
			<path fill="#FFFFFF" d="M57.9,74.5c0.8,0.8,0.8,2,0,2.7c-0.8,0.8-2,0.8-2.7,0c-0.8-0.8-0.8-3.5-0.8-3.5S57.2,73.7,57.9,74.5z"/>
			<path fill="#FFFFFF" d="M58,78.7c0.7,0.7,0.7,1.8,0,2.4c-0.7,0.7-1.8,0.7-2.4,0c-0.7-0.7-0.7-3.2-0.7-3.2S57.3,78,58,78.7z"/>
			<path fill="#FFFFFF" d="M58,82.9c0.6,0.6,0.6,1.6,0,2.3c-0.6,0.6-1.6,0.6-2.3,0c-0.6-0.6-0.7-3-0.7-3S57.4,82.3,58,82.9z"/>
		</g>
		<polygon fill="#FFFFFF" points="59.7,92 58.1,92 58.5,88 59.2,88 		"/>
	</g>
	<g>
		<path fill="#FFFFFF" d="M68.1,72.2c0,0.9,0.7,1.6,1.6,1.6c0.9,0,1.6-0.7,1.6-1.6s-1.6-2.6-1.6-2.6S68.1,71.3,68.1,72.2z"/>
		<g>
			<path fill="#FFFFFF" d="M70.7,74.5c-0.8,0.8-0.8,2,0,2.7c0.8,0.8,2,0.8,2.7,0c0.8-0.8,0.8-3.5,0.8-3.5S71.4,73.7,70.7,74.5z"/>
			<path fill="#FFFFFF" d="M70.6,78.7c-0.7,0.7-0.7,1.8,0,2.4c0.7,0.7,1.8,0.7,2.4,0c0.7-0.7,0.7-3.2,0.7-3.2S71.3,78,70.6,78.7z"/>
			<path fill="#FFFFFF" d="M70.6,82.9c-0.6,0.6-0.6,1.6,0,2.3c0.6,0.6,1.6,0.6,2.3,0c0.6-0.6,0.7-3,0.7-3S71.2,82.3,70.6,82.9z"/>
		</g>
		<g>
			<path fill="#FFFFFF" d="M68.8,74.5c0.8,0.8,0.8,2,0,2.7c-0.8,0.8-2,0.8-2.7,0c-0.8-0.8-0.8-3.5-0.8-3.5S68,73.7,68.8,74.5z"/>
			<path fill="#FFFFFF" d="M68.8,78.7c0.7,0.7,0.7,1.8,0,2.4c-0.7,0.7-1.8,0.7-2.4,0c-0.7-0.7-0.7-3.2-0.7-3.2S68.2,78,68.8,78.7z"
				/>
			<path fill="#FFFFFF" d="M68.9,82.9c0.6,0.6,0.6,1.6,0,2.3c-0.6,0.6-1.6,0.6-2.3,0c-0.6-0.6-0.7-3-0.7-3S68.2,82.3,68.9,82.9z"/>
		</g>
		<polygon fill="#FFFFFF" points="70.5,92 69,92 69.4,88 70.1,88 		"/>
	</g>
	<g>
		<path fill="#FFFFFF" d="M79,72.2c0,0.9,0.7,1.6,1.6,1.6c0.9,0,1.6-0.7,1.6-1.6s-1.6-2.6-1.6-2.6S79,71.3,79,72.2z"/>
		<g>
			<path fill="#FFFFFF" d="M81.5,74.5c-0.8,0.8-0.8,2,0,2.7c0.8,0.8,2,0.8,2.7,0c0.8-0.8,0.8-3.5,0.8-3.5S82.3,73.7,81.5,74.5z"/>
			<path fill="#FFFFFF" d="M81.5,78.7c-0.7,0.7-0.7,1.8,0,2.4c0.7,0.7,1.8,0.7,2.4,0c0.7-0.7,0.7-3.2,0.7-3.2S82.1,78,81.5,78.7z"/>
			<path fill="#FFFFFF" d="M81.4,82.9c-0.6,0.6-0.6,1.6,0,2.3c0.6,0.6,1.6,0.6,2.3,0c0.6-0.6,0.7-3,0.7-3S82.1,82.3,81.4,82.9z"/>
		</g>
		<g>
			<path fill="#FFFFFF" d="M79.6,74.5c0.8,0.8,0.8,2,0,2.7c-0.8,0.8-2,0.8-2.7,0c-0.8-0.8-0.8-3.5-0.8-3.5S78.9,73.7,79.6,74.5z"/>
			<path fill="#FFFFFF" d="M79.7,78.7c0.7,0.7,0.7,1.8,0,2.4c-0.7,0.7-1.8,0.7-2.4,0c-0.7-0.7-0.7-3.2-0.7-3.2S79,78,79.7,78.7z"/>
			<path fill="#FFFFFF" d="M79.7,82.9c0.6,0.6,0.6,1.6,0,2.3c-0.6,0.6-1.6,0.6-2.3,0c-0.6-0.6-0.7-3-0.7-3S79.1,82.3,79.7,82.9z"/>
		</g>
		<polygon fill="#FFFFFF" points="81.4,92 79.8,92 80.3,88 81,88 		"/>
	</g>
	<g>
		<path fill="#FFFFFF" d="M89.9,72.2c0,0.9,0.7,1.6,1.6,1.6c0.9,0,1.6-0.7,1.6-1.6s-1.6-2.6-1.6-2.6S89.9,71.3,89.9,72.2z"/>
		<g>
			<path fill="#FFFFFF" d="M92.4,74.5c-0.8,0.8-0.8,2,0,2.7c0.8,0.8,2,0.8,2.7,0c0.8-0.8,0.8-3.5,0.8-3.5S93.1,73.7,92.4,74.5z"/>
			<path fill="#FFFFFF" d="M92.3,78.7c-0.7,0.7-0.7,1.8,0,2.4c0.7,0.7,1.8,0.7,2.4,0c0.7-0.7,0.7-3.2,0.7-3.2S93,78,92.3,78.7z"/>
			<path fill="#FFFFFF" d="M92.3,82.9c-0.6,0.6-0.6,1.6,0,2.3c0.6,0.6,1.6,0.6,2.3,0c0.6-0.6,0.7-3,0.7-3S92.9,82.3,92.3,82.9z"/>
		</g>
		<g>
			<path fill="#FFFFFF" d="M90.5,74.5c0.8,0.8,0.8,2,0,2.7c-0.8,0.8-2,0.8-2.7,0c-0.8-0.8-0.8-3.5-0.8-3.5S89.7,73.7,90.5,74.5z"/>
			<path fill="#FFFFFF" d="M90.5,78.7c0.7,0.7,0.7,1.8,0,2.4c-0.7,0.7-1.8,0.7-2.4,0c-0.7-0.7-0.7-3.2-0.7-3.2S89.9,78,90.5,78.7z"
				/>
			<path fill="#FFFFFF" d="M90.6,82.9c0.6,0.6,0.6,1.6,0,2.3c-0.6,0.6-1.6,0.6-2.3,0c-0.6-0.6-0.7-3-0.7-3S90,82.3,90.6,82.9z"/>
		</g>
		<polygon fill="#FFFFFF" points="92.2,92 90.7,92 91.1,88 91.8,88 		"/>
	</g>
</g>
<text transform="matrix(1 0 0 1 149.2407 285.3496)" fill="#FFFFFF" font-family="'OpenSans'" font-size="11.6307">Рециклиране</text>
<g>
	<path fill="#FFFFFF" d="M171.4,255c-0.4,0.6-0.5,1.2-0.5,1.7c0,0.8,0.3,1.4,1,1.8c0.4,0.2,0.8,0.3,1.2,0.4c0.1,0,0.2,0,0.2,0l0.8,0
		h15v-4.2v-7.3h-13.3L171.4,255z"/>
	<path fill="#FFFFFF" d="M210.6,215l-5,2.9l-5.1-8.9c-0.6-1.1-2.2-2-3.4-2l-10.8,0c-0.4,0-0.9,0.1-1.3,0.3v0.2
		c0.4,0,0.8,0.1,1.2,0.3c0.4,0.3,0.9,0.7,1.2,1.3l4.3,7.6l4,7l-5,2.9l15.7,4.3L210.6,215z"/>
	<path fill="#FFFFFF" d="M184.1,228.5l6.7-11.5l-4.3-7.6c-0.4-0.6-0.8-1.1-1.2-1.3c-0.7-0.4-1.4-0.4-2.1,0c-0.4,0.2-0.7,0.5-0.9,0.8
		c0,0.1-0.1,0.1-0.1,0.2l-0.4,0.7l-7.5,12.9l3.6,2.1L184.1,228.5z"/>
	<path fill="#FFFFFF" d="M203.5,235.2l6.9,11.8l9,0c0.7,0,1.3-0.2,1.8-0.4c0.7-0.4,1.1-1,1.1-1.8c0-0.4-0.1-0.9-0.3-1.3
		c0-0.1-0.1-0.1-0.1-0.2l-0.4-0.7l-7.8-13.3l-3.7,2.2L203.5,235.2z"/>
	<path fill="#FFFFFF" d="M222.4,246.7c-0.2,0.4-0.5,0.7-0.9,0.9c-0.5,0.3-1.1,0.4-1.8,0.4l-8.7,0l-8.1,0l0-5.8l-11.5,11.5l11.5,11.5
		l0-5.8l10.3,0c1.3,0,2.8-0.9,3.5-2l5.4-9.3c0.2-0.4,0.4-0.8,0.4-1.3L222.4,246.7z"/>
	<path fill="#FFFFFF" d="M174.8,247.4l4.1-7l5,2.9l-4.2-15.7l-15.7,4.2l5,2.9l-5.2,8.9c-0.6,1.1-0.6,2.9,0,4l5.4,9.4
		c0.2,0.4,0.5,0.7,0.9,1l0.2-0.1c-0.2-0.3-0.3-0.7-0.3-1.2c0-0.5,0.2-1.1,0.5-1.7L174.8,247.4z"/>
</g>
<path fill="#FCB116" stroke="#FFFFFF" stroke-width="3" stroke-miterlimit="10" d="M347.4,515.4l2-127.1
	c-26-0.4-51.7-10.7-71.2-30.8l-35,33.9l-27.3,0.6l-0.7,26.4l-28.4,27.5C230.8,491.2,288.9,514.5,347.4,515.4z"/>
<path fill="#A4CD39" stroke="#FFFFFF" stroke-width="3" stroke-miterlimit="10" d="M510.1,451.1l-88.5-91.3
	c-18.6,18.1-44.2,29-72.2,28.6l-0.8,48.7l-18.8,19.8l18.2,19.2l-0.6,39.5C410.5,516.4,468.1,491.7,510.1,451.1z"/>
<path fill="#039C96" stroke="#FFFFFF" stroke-width="3" stroke-miterlimit="10" d="M579.6,290.5l-127.1-2
	c-0.4,26-10.7,51.7-30.8,71.2l33.9,35l0.6,27.3l26.4,0.7l27.5,28.4C555.4,407.1,578.6,349,579.6,290.5z"/>
<path fill="#2161AE" stroke="#FFFFFF" stroke-width="3" stroke-miterlimit="10" d="M515.2,127.9l-91.3,88.5
	c18.1,18.6,29,44.2,28.6,72.2l48.7,0.8l19.8,18.8l19.2-18.2l39.5,0.6C580.6,227.4,555.9,169.9,515.2,127.9z"/>
<text transform="matrix(1 0 0 1 251.3574 472.0078)" fill="#FFFFFF" font-family="'OpenSans'" font-size="11.6307">Събиране</text>
<text transform="matrix(1 0 0 1 349.6201 459.2686)"><tspan x="0" y="0" fill="#FFFFFF" font-family="'OpenSans'" font-size="10">Потребление, употреба,</tspan><tspan x="7.1" y="12" fill="#FFFFFF" font-family="'OpenSans'" font-size="10"> повторна употреба, </tspan><tspan x="38.1" y="24" fill="#FFFFFF" font-family="'OpenSans'" font-size="10">поправка</tspan></text>
<g>
	<g>
		<g>
			<path fill="#FFFFFF" d="M404.3,428.6l-2.9-2.9l-4,4c-2.7-1.5-6.1-1.1-8.4,1.2c-1.3,1.3-2,2.9-2.1,4.6l1.4-1.4
				c1.1-1.1,2.8-1.1,3.9,0l3.7,3.7c1.1,1.1,1.1,2.8,0,3.9l-1.4,1.4c1.7-0.1,3.3-0.8,4.6-2.1c2.3-2.3,2.7-5.7,1.2-8.4L404.3,428.6z"
				/>
			<path fill="#FFFFFF" d="M405.9,421.3l2.9,2.9l4-4c2.7,1.5,6.1,1.1,8.4-1.2c1.3-1.3,2-2.9,2.1-4.6l-1.4,1.4
				c-1.1,1.1-2.8,1.1-3.9,0l-3.7-3.7c-1.1-1.1-1.1-2.8,0-3.9l1.4-1.4c-1.7,0.1-3.3,0.8-4.6,2.1c-2.3,2.3-2.7,5.7-1.2,8.4
				L405.9,421.3z"/>
		</g>
		<g>
			<path fill="#FFFFFF" d="M399.4,408.8c0.7,0,1.4,0.3,1.9,0.8l1,1c1.1,1.1,1.1,2.8,0,3.9l-2.4,2.4l20.3,20.3
				c1.1,1.1,1.5,2.5,0.9,3.2l-0.5,0.5c-0.2,0.2-0.5,0.3-0.8,0.3c-0.7,0-1.6-0.4-2.3-1.2L397,419.7l-2.4,2.4
				c-0.5,0.5-1.2,0.8-1.9,0.8s-1.4-0.3-1.9-0.8l-1-1c-1.1-1.1-1.1-2.8,0-3.9l2.5-2.5c-0.8-1-1-2.1-0.4-2.7l0.5-0.5
				c0.2-0.2,0.5-0.3,0.8-0.3c0.6,0,1.2,0.3,1.9,0.7l2.5-2.5C398,409,398.7,408.8,399.4,408.8 M399.4,407.8c-1,0-1.9,0.4-2.6,1.1
				l-1.9,1.9c-0.6-0.3-1.2-0.5-1.7-0.5c-0.6,0-1.2,0.2-1.5,0.6l-0.5,0.5c-0.8,0.8-0.8,2-0.1,3.3l-1.9,1.9c-0.7,0.7-1.1,1.6-1.1,2.6
				c0,1,0.4,1.9,1.1,2.6l1,1c0.7,0.7,1.6,1.1,2.6,1.1c1,0,1.9-0.4,2.6-1.1l1.7-1.7l19.5,19.5c0.9,0.9,2.1,1.5,3.1,1.5
				c0.6,0,1.2-0.2,1.5-0.6l0.5-0.5c0.6-0.6,0.7-1.4,0.5-2.4c-0.2-0.8-0.7-1.6-1.3-2.2l-19.5-19.5l1.7-1.7c0.7-0.7,1.1-1.6,1.1-2.6
				c0-1-0.4-1.9-1.1-2.6l-1-1C401.3,408.2,400.4,407.8,399.4,407.8L399.4,407.8z"/>
		</g>
	</g>
</g>
<text transform="matrix(1 0 0 1 454.9473 379.5273)" fill="#FFFFFF" font-family="'OpenSans'" font-size="10">Разпространение</text>
<g>
	<circle fill="#FFFFFF" cx="495.4" cy="357.2" r="4.2"/>
	<circle fill="#FFFFFF" cx="513.7" cy="357.2" r="4.2"/>
	<path fill="#FFFFFF" d="M524.4,330c-5.4,0-25.9,0-25.9,0s-1.5,0.3-1.5,2c0,1.7,1.5,2.2,1.5,2.2h23.2l-1.3,4.4c-6.4,0-22.8,0-22.8,0
		s-1.4,0.3-1.4,1.9c0,1.6,1.4,2,1.4,2h21.6h0l-1.2,4.1h-23.5l-1.6-12.5l-0.5-4.2c0,0-0.5-3.9-0.7-5.5c-0.3-1.6-4.3-3.6-12.9-7.7
		c-2-0.9-3.7,2.9,0,4.8l6.8,3.2c0,0,1.6,0.9,1.7,2.2c0.1,1.2,2.9,21.8,2.9,21.8s0.1,2.9,2.7,2.9c2.6,0,23.8,0,26,0
		c2.2,0,2.6-2.3,2.6-2.3l5.2-15.3C526.7,334,528.2,330,524.4,330z"/>
</g>
<text transform="matrix(1 0 0 1 464.1846 250.0869)"><tspan x="0" y="0" fill="#FFFFFF" font-family="'OpenSans'" font-size="11.6307">Производство, </tspan><tspan x="13.8" y="14" fill="#FFFFFF" font-family="'OpenSans'" font-size="11.6307">преработка</tspan></text>
<path fill-rule="evenodd" clip-rule="evenodd" fill="#F9F8F7" d="M518,208.1v-8.9l-7,8.9v-8.9l-10,8.9v-8.9l-9,10.6V228h9.2h1.6h6.7
	h1.6h6.7h1.6h6.7v-28.8L518,208.1z M502,223h-5v-8h5V223z M512,223h-6v-8h6V223z M521,223h-6v-8h6V223z"/>
<g>
	<g id="IgFtpd_1_">
		<g>
			<path fill-rule="evenodd" clip-rule="evenodd" fill="none" stroke="#FFFFFF" stroke-width="0.81" stroke-miterlimit="10" d="
				M439,138.1c0.1,0.6,0.1,1.1,0.2,1.7c0.1,0.7,0.2,1.3,0.4,2c0,0.2,0.1,0.3,0.1,0.5c0.2,1.9-0.2,2.1-1.7,2.2
				c-2.4,0.2-4.7-0.2-7-0.7c-0.5-0.1-0.9-0.2-1.4-0.3c-0.8-0.2-1.4,0-1.8,0.8c-0.4,0.8-0.7,1.6-0.9,2.5c-0.3,1.2-0.5,2.5-0.7,3.8
				c1,0,1.9,0,2.9,0c0.3-1.3,0.5-2.7,0.8-4.1c1.2,0.2,2.4,0.4,3.5,0.6c1.8,0.2,3.6,0.4,5.4,0.2c3.1-0.4,4.1-2.5,3.8-5.1
				c-0.2-1.5-0.5-3-0.6-4.5c-0.2-1.5,0.4-2.9,0.9-4.2c0.1-0.1,0.3-0.3,0.5-0.3c0.8-0.2,1.6-0.4,2.5-0.5c2.3-0.4,3.1-2.8,1.6-4.6
				c-1.4-1.7-2.8-3.4-4.3-5c-0.6-0.7-0.8-1.4-0.9-2.3c-0.2-1.4,0.1-2.8,0.3-4.2c0.4-3.9-0.3-7.6-2.9-10.7c-1.2-1.4-2.7-2.4-4.4-3.3
				c-4.2-2.2-8.7-3.3-13.5-3.2c-4.7,0.1-9.2,1.2-13.2,3.7c-4.9,3-7.9,7.4-8.6,13.2c-0.6,5,0.5,9.8,3,14.2c1.7,3,3.1,6.1,3.8,9.4
				c0.3,1.2,0.2,2.6,0.1,3.8c-0.2,2.3-0.5,4.5-0.7,6.7c0,0.1,0,0.1,0,0.2c0.9,0,1.9,0,2.8,0c0.1-0.8,0.3-1.6,0.3-2.4
				c0.3-2.5,0.7-5.1,0.4-7.6c-0.2-1.6-0.7-3.2-1.2-4.8c-0.8-2.4-1.9-4.6-3.2-6.8c-1.3-2.1-2.1-4.5-2.5-7c-0.5-2.8-0.4-5.7,0.5-8.4
				c1-2.9,2.8-5.2,5.1-7.1c2.6-2.1,5.7-3.1,8.9-3.8c6.5-1.4,12.5-0.1,18.1,3.3c2.4,1.5,3.6,3.8,4,6.5c0.3,1.8,0.1,3.6-0.1,5.4
				c-0.3,1.8-0.1,3.7,0.5,5.4c0.1,0.3,0.3,0.6,0.6,0.9c1.5,1.7,2.9,3.4,4.4,5.2c0.1,0.1,0.2,0.3,0.3,0.4c-1.1,0.2-2.1,0.5-3.1,0.6
				c-0.8,0.1-1.3,0.5-1.5,1.2c-0.4,1.1-0.8,2.1-1.2,3.2c-0.1,0.3-0.2,0.4-0.6,0.4c-1,0-2,0-3,0.1c-0.7,0.1-1.1,0.6-1.2,1.3
				c0,0.6,0.4,1.2,1,1.4c0.2,0.1,0.5,0.1,0.8,0.1C437.3,138.1,438.1,138.1,439,138.1z"/>
		</g>
	</g>
	<g>
		<path fill-rule="evenodd" clip-rule="evenodd" fill="#F9F9FA" d="M407,124.7c-1-0.1-1.2-0.6-1.1-1.5c0-0.2,0-0.3,0-0.5
			c-0.1-0.7,0.1-1.1,0.9-1.2c1.1-0.2,1.8-1.9,1.2-2.9c-0.1-0.2-0.4-0.6-0.3-0.8c0.5-0.6,1-1.2,1.6-1.7c0.2-0.1,0.7,0.2,1.1,0.3
			c0.8,0.4,2.5-0.3,2.7-1.2c0.1-0.9,0.5-1.2,1.4-1.1c0.3,0,0.6,0,0.9,0c0.6-0.1,0.8,0.2,1,0.7c0.1,0.3,0.2,0.9,0.4,1
			c0.9,0.3,1.8,1.2,2.8,0.3c0.1-0.1,0.4-0.2,0.5-0.1c0.6,0.5,1.2,1,1.7,1.6c0.1,0.2-0.1,0.7-0.3,1.1c-0.4,0.8,0.3,2.6,1.1,2.7
			c1,0.1,1.3,0.6,1.1,1.5c0,0.3,0,0.5,0,0.8c0.1,0.5-0.1,0.8-0.6,0.9c-1.4,0.4-2.1,1.8-1.4,3.1c0.3,0.5,0.3,0.8-0.2,1.2
			c-0.2,0.2-0.5,0.4-0.7,0.7c-0.5,0.6-0.9,0.6-1.5,0.2c-0.9-0.6-2.6,0.2-2.9,1.2c-0.1,0.3-0.2,0.7-0.3,0.7c-0.8,0.1-1.6,0.2-2.3,0.1
			c-0.2,0-0.4-0.6-0.5-1c-0.3-0.9-1.9-1.6-2.7-1.1c-0.8,0.6-1.4,0.4-1.9-0.3c-0.1-0.2-0.3-0.3-0.5-0.5c-0.4-0.4-0.5-0.7-0.2-1.2
			c0.5-0.7,0.2-2.2-0.4-2.8C407.3,124.8,407.2,124.7,407,124.7z M418.2,126.5c2-2,1.9-4.9-0.1-7c-2-2-4.8-2-6.8-0.2
			c-2.2,2-2.2,5-0.1,7C413.3,128.6,416.1,128.6,418.2,126.5z"/>
		<path fill-rule="evenodd" clip-rule="evenodd" fill="#F9F9FA" d="M433.9,110.5c0,0.3-0.6,0.6-1,0.8c-1.4,0.8-1.7,2-0.9,3.4
			c0.2,0.3,0.6,0.9,0.4,1.1c-0.4,0.6-1,1.2-1.6,1.7c-0.2,0.2-0.9-0.2-1.3-0.5c-1.2-0.7-2.5-0.4-3.2,0.8c-0.7,1.3-0.7,1.3-2.2,0.9
			c-0.1,0-0.1,0-0.2,0c-0.9,0-1.1-0.6-1-1.4c0.1-1.8-0.7-2.7-2.5-2.6c-0.9,0.1-1.4-0.2-1.5-1.1c0-0.1,0-0.2-0.1-0.3
			c-0.4-0.9-0.1-1.3,0.7-1.7c1.6-0.8,1.9-2,0.9-3.5c-0.4-0.7-0.5-1.1,0.2-1.7c1.2-1.1,1.2-1.2,2.6-0.3c0.9,0.5,2.3,0.1,2.8-0.8
			c1-1.7,0.5-1.4,2.4-1c0.9,0.2,1.1,0.6,1,1.4c-0.1,0.9,0.1,1.5,0.7,2.2c0.6,0.5,1.2,0.4,1.9,0.4c0.4,0,0.7,0,1.1,0
			C433.5,109,433.8,109.8,433.9,110.5z M428.5,109.2c-1.3-1.3-3.2-1.3-4.4,0c-1.2,1.3-1.2,3.1,0.1,4.4c1.3,1.3,3,1.3,4.3,0
			C429.8,112.3,429.8,110.5,428.5,109.2z"/>
		<path fill-rule="evenodd" clip-rule="evenodd" fill="#F9F9FA" d="M413,121.4c-1,1-1,2.3,0,3.3c0.9,1,2.4,0.9,3.4,0
			c1-1,0.9-2.3-0.1-3.3C415.3,120.4,414,120.4,413,121.4z"/>
	</g>
</g>
<polyline fill="#60449B" stroke="#FFFFFF" stroke-width="3" stroke-miterlimit="10" points="458.8,182.1 485.2,182.3 486.8,155 "/>
<polyline fill="#60449B" stroke="#60449B" stroke-miterlimit="10" points="433.9,179.7 484.1,181.5 485.6,144 "/>
<g>
	<path fill="#FFFFFF" d="M296.1,410.8H265c-3.3,0-5.6,3.1-5.1,6.7l4.4,33.3c0.3,2.2,2.5,3.9,4.9,3.9H292c2.4,0,4.6-1.7,4.9-3.9
		l4.4-33.3C301.7,413.9,299.4,410.8,296.1,410.8z M293.1,434.1l0.2,0.3c0,0,0,0.1,0,0.1c0.1,0.2,0.1,0.4,0.1,0.5
		c0,0.3-0.2,0.6-0.5,0.8c-0.2,0.1-0.5,0.2-0.8,0.2l-3.9,0l-3-5.1l2.8-1.7l1.6-1L293.1,434.1z M275.7,419.8l0.2-0.3
		c0,0,0-0.1,0.1-0.1c0.1-0.1,0.3-0.3,0.4-0.4c0.3-0.2,0.6-0.2,0.9,0c0.2,0.1,0.4,0.3,0.5,0.6l1.9,3.3l-2.9,5l-2.8-1.6l-1.6-0.9
		L275.7,419.8z M270.6,440.8L270.6,440.8c-0.2-0.1-0.4-0.2-0.5-0.4l-2.3-4.1c-0.3-0.5-0.3-1.3,0-1.7l2.3-3.9l-2.2-1.3l6.9-1.8
		l1.8,6.9l-2.2-1.3l-1.8,3.1l-1.9,3.3c-0.2,0.3-0.2,0.5-0.2,0.8C270.5,440.5,270.5,440.7,270.6,440.8z M278.9,439.5v1.8h-6.5l-0.4,0
		c0,0-0.1,0-0.1,0c-0.2,0-0.3-0.1-0.5-0.2c-0.3-0.2-0.4-0.5-0.4-0.8c0-0.2,0.1-0.5,0.2-0.8l1.9-3.3h5.8V439.5z M281.7,425.8
		l-1.8-3.1l-1.9-3.3c-0.2-0.3-0.3-0.5-0.5-0.6c-0.2-0.1-0.3-0.1-0.5-0.1v-0.1c0.2-0.1,0.4-0.1,0.6-0.1l4.7,0c0.6,0,1.2,0.4,1.5,0.9
		l2.2,3.9l2.2-1.2l-1.9,6.9l-6.9-1.9L281.7,425.8z M293.3,436.6l-2.4,4.1c-0.3,0.5-1,0.9-1.5,0.9l-4.5,0l0,2.5l-5-5l5-5l0,2.5l3.5,0
		l3.8,0c0.3,0,0.6-0.1,0.8-0.2c0.2-0.1,0.3-0.2,0.4-0.4l0.1,0C293.5,436.2,293.4,436.4,293.3,436.6z"/>
	<path fill="#FFFFFF" d="M262.1,409.7h37c1.1,0,2-0.8,2-1.8c0-1-0.9-1.8-2-1.8h-14c-0.1-1.1-1.1-1.9-2.4-1.9h-4.3
		c-1.3,0-2.3,0.8-2.4,1.9h-14c-1.1,0-2,0.8-2,1.8C260.1,408.9,261,409.7,262.1,409.7z"/>
</g>
<polyline fill="none" stroke="#FFFFFF" stroke-width="3" stroke-miterlimit="10" points="352.7,185.5 353.8,137.9 372.7,119.3 
	354.5,99 355.1,56.5 "/>
<path fill="none" stroke="#FFFFFF" stroke-width="3" stroke-miterlimit="10" d="M352.7,187C352.7,187,352.7,187,352.7,187l0.8-48.7
	l18.8-18.6l-18.2-20.3l0.6-39.5c0,0,0.3-7.4,0.3-7.4"/>
<path fill="none" stroke="#FFFFFF" stroke-width="3" stroke-miterlimit="10" d="M279.2,357.4c-17.9-18.6-28.7-44.2-28.2-72.2l0,0
	c0.4-25.9,10.6-51.7,30.5-71.2c18.4-18.1,43.7-29,71.4-28.6"/>
<text transform="matrix(1 0 0 1 377.5381 167.1084)" fill="#FFFFFF" font-family="'OpenSans'" font-size="11.6307">Проектиране</text>
</svg>
